<svg width="10" height="16" viewBox="0 0 10 16" fill="none" xmlns="http://www.w3.org/2000/svg">
<path d="M3.0874 9.03332C3.0246 9.03332 1.7072 9.03372 1.09959 9.03312C0.786795 9.03292 0.675195 8.92052 0.675195 8.60572C0.674695 7.79712 0.674695 6.98852 0.675195 6.17992C0.675395 5.86912 0.793395 5.75052 1.1022 5.75032C1.7098 5.74992 3.02 5.75012 3.0874 5.75012V3.98972C3.0878 3.19492 3.2296 2.43412 3.6334 1.73752C4.0468 1.02452 4.6484 0.536123 5.4194 0.253723C5.9132 0.0727233 6.4258 0.00052341 6.9498 0.00012341C7.6054 -0.00027659 8.261 0.000323404 8.9168 0.0015234C9.1986 0.0019234 9.3236 0.126523 9.3242 0.410323C9.3254 1.17092 9.3254 1.93152 9.3242 2.69192C9.3238 2.97872 9.204 3.09392 8.9158 3.09712C8.3784 3.10292 7.8406 3.09932 7.3038 3.12092C6.7616 3.12092 6.4764 3.38572 6.4764 3.94692C6.4634 4.54052 6.471 5.13472 6.471 5.74992C6.5218 5.74992 8.0648 5.74972 8.786 5.74992C9.1136 5.74992 9.2256 5.86252 9.2256 6.19192C9.2256 6.99612 9.2254 7.80052 9.2248 8.60472C9.2246 8.92932 9.1194 9.03292 8.7898 9.03312C8.0686 9.03352 6.5316 9.03332 6.4644 9.03332V15.5423C6.4644 15.8893 6.3552 15.9999 6.0128 15.9999H3.5082C3.2056 15.9999 3.0876 15.8823 3.0876 15.5797L3.0874 9.03332Z" fill="#1877F2"/>
</svg>
