<svg width="20" height="16" viewBox="0 0 20 16" fill="none" xmlns="http://www.w3.org/2000/svg">
<path d="M1.36363 15.5022H4.54547V7.77492L2.46195 4.13672L0 4.36582V14.1386C0 14.892 0.610234 15.5022 1.36363 15.5022Z" fill="#0085F7"/>
<path d="M15.4545 15.5022H18.6364C19.3898 15.5022 20 14.892 20 14.1386V4.36582L17.5416 4.13672L15.4546 7.77492V15.5022H15.4545Z" fill="#00A94B"/>
<path d="M15.4545 1.86535L13.5855 5.43187L15.4545 7.77445L20 4.36535V2.54718C20 0.861947 18.0761 -0.100553 16.7273 0.910814L15.4545 1.86535Z" fill="#FFBC00"/>
<path fill-rule="evenodd" clip-rule="evenodd" d="M4.54547 7.77434L2.7645 4.01223L4.54547 1.86523L10 5.95613L15.4545 1.86523V7.77434L10 11.8652L4.54547 7.77434Z" fill="#FF4131"/>
<path d="M0 2.54718V4.36535L4.54547 7.77445V1.86535L3.27273 0.910814C1.92387 -0.100553 0 0.861947 0 2.54718Z" fill="#E51C19"/>
</svg>
