<svg width="142" height="78" viewBox="0 0 142 78" fill="none" xmlns="http://www.w3.org/2000/svg">
<g clip-path="url(#clip0_1_2)">
<path d="M11.2 37.4C17.3 37.4 19.1 32.1 19.1 25.4C19.1 17 16.3 13.5 11.2 13.5C7.2 13.5 3.7 16.9 3.7 25.4C3.7 33.9 7.2 37.4 11.2 37.4ZM22.8 34.6C22.8 36.2 23.7 36.8 26.9 36.8V38.3L19 38.6V34L18.9 33.8C17.1 36.8 14.8 38.9 11 38.9C4.1 38.9 -0.299999 32.2 -0.299999 25.4C-0.299999 18.6 4.1 12 10.7 12C14.8 12 18.1 14.5 18.8 16.7H19V4.70001C19 3.10001 18.1 2.50001 14.7 2.50001V0.900012L22.7 0.700012C22.8 0.700012 22.8 34.6 22.8 34.6Z" fill="black"/>
<path d="M37.2 3.7C37.2 5.2 36.1 6.3 34.6 6.3C33.1 6.3 32 5.2 32 3.7C32 2.2 33.1 1 34.6 1C36 1 37.2 2.2 37.2 3.7ZM41.4 38.3H28.5V36.8C32.3 36.8 33.2 36.3 33.2 34.6V16.3C33.2 14.7 32.3 14.1 28.9 14.1V12.6L36.9 12.3V34.6C36.9 36.2 37.8 36.8 41.4 36.8V38.3Z" fill="black"/>
<path d="M68.7 12.6V14.1C65.7 14.1 65.2 14.5 64.1 17.5L56 38.2H54.4L46.1 17.2C45 14.4 44.5 14.1 41.7 14.1V12.6H53.6V14.1C50 14.1 49.4 14.4 49.4 15.7C49.4 17.1 52.5 23.1 55.9 33.1H56C60 22.4 62.3 17.4 62.3 15.9C62.3 14.6 61.6 14.1 58.3 14.1V12.6C58.4 12.6 68.7 12.6 68.7 12.6Z" fill="black"/>
<path d="M90.1 25.4C90.1 17.7 87.7 13.5 82.4 13.5C77.1 13.5 74.7 17.8 74.7 25.4C74.7 33 77.1 37.3 82.4 37.3C87.7 37.3 90.1 33.1 90.1 25.4ZM70.6 25.4C70.6 18.6 75 12 82.4 12C89.8 12 94.2 18.7 94.2 25.5C94.2 32.3 89.8 39 82.4 39C75 39 70.6 32.3 70.6 25.4Z" fill="black"/>
<path d="M113.3 12V13.5H105.1V32.9C105.1 36.3 106.7 37.4 108.7 37.4C110.3 37.4 112.7 36.2 112.7 31.9V29.5H114.2V31.5C114.2 35.9 112.2 38.9 107.7 38.9C103.7 38.9 101.4 36.7 101.4 32.6V13.5H97.4V12C102 12 103.3 7.49999 103.6 3.79999H105.1V12H113.3Z" fill="black"/>
<path d="M133.1 23.9C128.1 25 121.5 26.5 121.5 33C121.5 35.5 123.7 37.2 126 37.2C129.9 37.2 133.1 32.9 133.1 27.9V23.9ZM136.8 19.9V34.4C136.8 36 137.5 36.4 138.3 36.4C139.3 36.4 140 35.4 140 32.1H141.5C141.5 35.8 140.5 38.2 137 38.2C134.5 38.2 133.3 36.6 133.2 33.5H133.1C131.6 36.5 128.7 38.8 124.8 38.8C121.2 38.8 117.4 36.7 117.4 32.4C117.4 25.5 128.1 23.6 133.1 22.3V18.4C133.1 15.3 131.5 13.3 127.5 13.3C125.2 13.3 122.9 14.1 121.4 15.3L121.5 15.4C122.6 15.5 123.8 16.3 123.8 17.8C123.8 19.1 122.9 20.5 121.2 20.5C119.7 20.5 118.7 19.4 118.7 17.4C118.7 14.3 122.4 11.8 127.3 11.8C133.4 12 136.8 13.9 136.8 19.9Z" fill="black"/>
<path d="M8.6 52.5C7.1 52.9 4.5 54 4.5 55.8C4.5 56.8 5 57.5 6 57.5C7.4 57.5 8.6 56.2 8.6 54.4V52.5ZM12.8 55.7C12.8 57.1 12.1 58.3 10.6 58.3C9.3 58.3 9 57.5 8.8 56.3C8.2 57.9 6.9 58.4 5.3 58.4C3.8 58.4 2.3 57.6 2.3 55.9C2.3 53.4 6.9 52.4 8.7 51.8V49.8C8.7 48.7 7.3 48.5 6.5 48.5C5.7 48.5 5.1 48.6 4.5 49C5.1 49.1 5.4 49.5 5.4 50.2C5.4 50.9 4.9 51.5 4.2 51.5C3.5 51.5 2.9 50.9 2.9 50.2C2.9 48.9 4.6 47.8 6.6 47.8C9.4 47.8 10.8 48.5 10.8 50.8V56C10.8 57.1 11.1 57.2 11.5 57.2C12.2 57.2 12.3 56.2 12.3 55.7H12.8Z" fill="#778186"/>
<path d="M16.1 53.2V53.8C16.1 57.1 17.9 57.8 18.6 57.8C20.6 57.8 21.4 56.5 21.4 53.3C21.4 50.6 20.6 48.6 18.8 48.6C17.1 48.5 16.1 50.5 16.1 53.2ZM16 50C16.6 48.8 17.4 47.8 19.1 47.8C21.6 47.8 23.7 50.3 23.7 53C23.7 55.9 21.7 58.5 19.2 58.5C17.7 58.5 17 58 16.3 56.7V60.5C16.3 61.2 16.7 61.4 18.3 61.4V62.1H12.6V61.4C13.9 61.4 14.3 61.2 14.3 60.5V49.8C14.3 49.1 13.9 48.9 12.7 48.9V48.2L16 48V50Z" fill="#778186"/>
<path d="M31.5 52.5C30 52.9 27.4 54 27.4 55.8C27.4 56.8 27.9 57.5 28.9 57.5C30.3 57.5 31.4 56.2 31.4 54.4L31.5 52.5ZM35.7 55.7C35.7 57.1 35 58.3 33.5 58.3C32.2 58.3 31.9 57.5 31.7 56.3C31.1 57.9 29.8 58.4 28.2 58.4C26.7 58.4 25.2 57.6 25.2 55.9C25.2 53.4 29.8 52.4 31.6 51.8V49.8C31.6 48.7 30.2 48.5 29.4 48.5C28.6 48.5 28 48.6 27.4 49C28 49.1 28.3 49.5 28.3 50.2C28.3 50.9 27.8 51.5 27.1 51.5C26.4 51.5 25.9 50.9 25.9 50.2C25.9 48.9 27.6 47.8 29.6 47.8C32.4 47.8 33.8 48.5 33.8 50.8V56C33.8 57.1 34.1 57.2 34.5 57.2C35.2 57.2 35.3 56.2 35.3 55.7H35.7Z" fill="#778186"/>
<path d="M41.4 58.2H35.7V57.5C37 57.5 37.4 57.3 37.4 56.6V49.7C37.4 49 37 48.8 35.8 48.8V48L39.2 47.9V50.8C39.7 49.1 40.4 47.7 42.2 47.7C43.4 47.7 43.9 48.5 43.9 49.2C43.9 49.8 43.4 50.4 42.7 50.4C42 50.4 41.6 50 41.6 49.4C41.6 49.1 41.8 48.7 42.1 48.6C42 48.6 41.9 48.6 41.8 48.6C40.3 48.6 39.3 51.3 39.3 55.4C39.3 57.2 39.4 57.6 41.3 57.6V58.2H41.4Z" fill="#778186"/>
<path d="M47.4 44.7V48H50.4V48.7H47.4V56.5C47.4 57.4 48 57.6 48.6 57.6C49.4 57.6 50.2 57 50.2 55.3V54.8H50.8V55.2C50.8 57.2 50.2 58.4 48.1 58.4C46.6 58.4 45.4 57.9 45.4 55.8V48.8H43.8V48C45.8 47.8 46.1 47.3 46.6 44.6L47.4 44.7Z" fill="#778186"/>
<path d="M65.1 58.2V51C65.1 49.5 64.6 48.7 63.3 48.7C62.3 48.7 61.1 49.5 61.1 52.2V56.6C61.1 57.3 61.5 57.5 62.6 57.5V58.2H59V51C59 49.5 58.5 48.7 57.2 48.7C56.2 48.7 55 49.5 55 52.2V56.6C55 57.3 55.4 57.5 56.7 57.5V58.2H51.4V57.5C52.6 57.5 53 57.3 53 56.6V49.7C53 49 52.6 48.8 51.4 48.8V48L54.9 47.9V49.9C55.4 48.7 56.3 47.8 57.7 47.8C59.3 47.8 60.4 48.5 60.9 50.1C61.6 48.5 62.7 47.8 64.1 47.8C65.5 47.8 67.3 48.4 67.3 51.1V56.5C67.3 57.2 67.7 57.4 68.9 57.4V58.1L65.1 58.2Z" fill="#778186"/>
<path d="M76.9 52.3C76.9 50.7 76.6 48.5 74.5 48.5C72.4 48.5 72.1 50.7 72.1 52.3H76.9ZM72.1 53C72.1 56 73.4 57.7 75.2 57.7C76.6 57.7 77.6 56.8 78.4 55.7L78.9 56C77.9 57.4 76.7 58.4 74.4 58.4C71.7 58.4 69.6 55.9 69.6 53.1C69.6 50.2 71.7 47.8 74.4 47.8C76.9 47.8 79 49.6 79 53.1L72.1 53Z" fill="#778186"/>
<path d="M83.5 47.9V49.9C84.3 48.6 85.3 47.7 86.8 47.7C88.3 47.7 90 48.5 90 51.7V56.5C90 57.2 90.4 57.4 91.5 57.4V58.1H88V51C88 49.1 87.1 48.7 86.3 48.7C84.7 48.7 83.7 50.7 83.7 52.4V56.7C83.7 57.4 84.1 57.6 85.4 57.6V58.3H80.2V57.6C81.4 57.6 81.7 57.4 81.7 56.7V49.8C81.7 49.1 81.3 48.9 80.2 48.9V48L83.5 47.9Z" fill="#778186"/>
<path d="M95.5 44.7V48H98.5V48.7H95.5V56.5C95.5 57.4 96.1 57.6 96.7 57.6C97.5 57.6 98.3 57 98.3 55.3V54.8H98.9V55.2C98.9 57.2 98.3 58.4 96.2 58.4C94.7 58.4 93.5 57.9 93.5 55.8V48.8H91.9V48C93.9 47.8 94.2 47.3 94.7 44.6L95.5 44.7Z" fill="#778186"/>
<path d="M11.9 75.9C11.9 76.6 12.3 76.8 13.4 76.8V77.5H9.9V70.3C9.9 68.4 9 68 8.2 68C6.6 68 5.6 70 5.6 71.7V76C5.6 76.7 6 76.9 7.3 76.9V77.6H1.9V76.9C3 76.9 3.4 76.7 3.4 76V64.4C3.4 63.7 3 63.5 1.9 63.5V62.8L5.5 62.7V69.3C6.1 68 7.1 67.1 8.6 67.1C10.1 67.1 11.8 67.9 11.8 71.1L11.9 75.9Z" fill="#778186"/>
<path d="M22.6 72.4C22.6 68.8 21.4 67.8 19.7 67.8C18 67.8 16.8 68.9 16.8 72.4C16.8 75.9 18 77 19.7 77C21.4 77 22.6 76 22.6 72.4ZM25 72.4C25 75.5 22.7 77.7 19.7 77.7C16.7 77.7 14.4 75.5 14.4 72.4C14.4 69.3 16.7 67.1 19.7 67.1C22.6 67.1 25 69.3 25 72.4Z" fill="#778186"/>
<path d="M29.4 64V67.4H32.4V68.1H29.4V75.9C29.4 76.8 30 77 30.6 77C31.5 77 32.2 76.4 32.2 74.7V74.3H32.8V74.7C32.8 76.6 32.2 77.9 30.1 77.9C28.6 77.9 27.4 77.4 27.4 75.3V68.2H25.8V67.5C27.8 67.3 28.1 66.8 28.6 64.1L29.4 64Z" fill="#778186"/>
<path d="M40.8 71.6C40.8 70 40.5 67.8 38.4 67.8C36.3 67.8 36 70 36 71.6H40.8ZM36 72.4C36 75.4 37.3 77.1 39.1 77.1C40.6 77.1 41.5 76.2 42.3 75.1L42.8 75.4C41.8 76.8 40.6 77.8 38.3 77.8C35.6 77.8 33.5 75.3 33.5 72.5C33.5 69.7 35.6 67.2 38.3 67.2C40.8 67.2 42.9 69 42.9 72.5L36 72.4Z" fill="#778186"/>
<path d="M44.1 77.5V76.8C45.3 76.8 45.7 76.6 45.7 75.9V64.4C45.7 63.7 45.3 63.5 44.1 63.5V62.8L47.8 62.7V75.9C47.8 76.6 48.2 76.8 49.5 76.8V77.5H44.1Z" fill="#778186"/>
</g>
<defs>
<clipPath id="clip0_1_2">
<rect width="142" height="78" fill="white"/>
</clipPath>
</defs>
</svg>
